<svg width="581" height="333" viewBox="0 0 581 333" fill="none" xmlns="http://www.w3.org/2000/svg">
<path d="M548.615 132.261C549.632 133.212 549.926 135.01 549.154 137.806C548.388 140.578 546.633 144.081 543.98 148.074C541.332 152.06 537.873 156.409 533.845 160.811C529.817 165.212 525.324 169.555 520.682 173.531C516.041 177.506 511.369 181.015 506.998 183.809C502.624 186.605 498.671 188.609 495.417 189.692C492.136 190.784 489.75 190.876 488.328 190.145C487.639 189.79 487.178 189.244 486.926 188.509C486.669 187.76 486.616 186.778 486.818 185.546" stroke="#F5FDA1" stroke-linecap="round"/>
<path d="M47.7283 148.525C42.742 146.605 38.5647 144.492 35.6817 142.444C34.2396 141.42 33.1697 140.447 32.4743 139.556C31.774 138.659 31.4917 137.897 31.5214 137.279C31.5499 136.689 31.8695 136.139 32.5854 135.649C33.3127 135.152 34.417 134.742 35.9116 134.463C38.8967 133.906 43.1597 133.924 48.2087 134.535C53.2501 135.146 58.8328 136.319 64.292 137.916C69.7518 139.513 74.8478 141.465 78.9755 143.536C83.1188 145.615 86.0582 147.7 87.5104 149.522C88.2355 150.432 88.5289 151.2 88.5135 151.818C88.4989 152.407 88.2 152.959 87.4974 153.456" stroke="#F5FDA1" stroke-linecap="round"/>
<path d="M51.9299 181.326C46.7162 182.496 42.0686 183.057 38.534 182.954C36.7659 182.902 35.3357 182.686 34.2629 182.331C33.1826 181.974 32.5246 181.496 32.2066 180.966C31.9026 180.459 31.8635 179.825 32.1871 179.02C32.5158 178.202 33.2069 177.248 34.2954 176.187C36.4696 174.067 40.0255 171.716 44.5647 169.422C49.0972 167.132 54.3921 165.009 59.8199 163.308C65.2482 161.606 70.5705 160.402 75.1534 159.833C79.7537 159.263 83.3559 159.366 85.5754 160.076C86.6836 160.43 87.354 160.906 87.6841 161.429C87.999 161.927 88.0568 162.552 87.748 163.355" stroke="#F5FDA1" stroke-linecap="round"/>
<path d="M126.014 253.125C114.556 253.125 103.85 251.042 93.8958 246.875C83.9421 242.593 75.1458 236.748 67.5069 229.34C59.9838 221.933 54.081 213.31 49.7986 203.472C45.5162 193.634 43.375 183.102 43.375 171.875C43.375 160.648 45.5162 150.116 49.7986 140.278C54.081 130.44 59.9838 121.817 67.5069 114.41C75.1458 107.002 83.9421 101.215 93.8958 97.0486C103.85 92.7662 114.556 90.625 126.014 90.625C137.472 90.625 148.178 92.7662 158.132 97.0486C168.086 101.215 176.824 107.002 184.347 114.41C191.986 121.817 197.947 130.44 202.229 140.278C206.512 150.116 208.653 160.648 208.653 171.875C208.653 183.102 206.512 193.634 202.229 203.472C197.947 213.31 191.986 221.933 184.347 229.34C176.824 236.748 168.086 242.593 158.132 246.875C148.178 251.042 137.472 253.125 126.014 253.125ZM126.014 222.917C135.389 222.917 143.838 220.66 151.361 216.146C158.884 211.516 164.845 205.324 169.243 197.569C173.757 189.815 176.014 181.25 176.014 171.875C176.014 162.384 173.757 153.819 169.243 146.181C164.845 138.426 158.884 132.292 151.361 127.778C143.838 123.148 135.389 120.833 126.014 120.833C116.639 120.833 108.132 123.148 100.493 127.778C92.9699 132.292 87.0093 138.426 82.6111 146.181C78.213 153.819 76.0139 162.384 76.0139 171.875C76.0139 181.25 78.213 189.815 82.6111 197.569C87.0093 205.324 92.9699 211.516 100.493 216.146C108.132 220.66 116.639 222.917 126.014 222.917Z" fill="#FF5C75"/>
<path d="M229.54 250V145.833H256.624V163.715C260.212 157.697 264.726 153.067 270.165 149.826C275.721 146.47 282.202 144.792 289.61 144.792L296.207 171.528C294.008 170.833 291.52 170.486 288.742 170.486C280.061 170.486 273.059 173.322 267.735 178.993C262.411 184.549 259.749 192.535 259.749 202.951V250H229.54ZM367.881 252.778C361.284 252.778 355.208 251.62 349.652 249.306C344.212 246.991 339.467 243.808 335.416 239.757V250H309.374V83.3333H339.583V152.431C343.402 149.421 347.685 147.106 352.43 145.486C357.175 143.866 362.326 143.056 367.881 143.056C377.604 143.056 386.4 145.544 394.27 150.521C402.141 155.382 408.391 161.979 413.02 170.313C417.766 178.646 420.138 187.847 420.138 197.917C420.138 207.986 417.766 217.187 413.02 225.521C408.391 233.738 402.141 240.336 394.27 245.312C386.4 250.289 377.604 252.778 367.881 252.778ZM364.409 226.215C369.502 226.215 374.131 224.942 378.298 222.396C382.465 219.85 385.763 216.435 388.194 212.153C390.74 207.87 392.013 203.125 392.013 197.917C392.013 192.708 390.74 187.963 388.194 183.681C385.763 179.398 382.465 175.984 378.298 173.437C374.131 170.891 369.502 169.618 364.409 169.618C359.316 169.618 354.687 170.891 350.52 173.437C346.354 175.984 342.997 179.398 340.451 183.681C338.02 187.963 336.805 192.708 336.805 197.917C336.805 203.125 338.02 207.87 340.451 212.153C342.997 216.435 346.354 219.85 350.52 222.396C354.687 224.942 359.316 226.215 364.409 226.215ZM438.14 250V145.833H468.348V250H438.14ZM453.244 130.729C448.73 130.729 444.91 129.167 441.785 126.042C438.66 122.917 437.098 119.097 437.098 114.583C437.098 109.954 438.66 106.134 441.785 103.125C444.91 100 448.73 98.4375 453.244 98.4375C457.873 98.4375 461.693 100 464.702 103.125C467.827 106.134 469.39 109.954 469.39 114.583C469.39 119.097 467.827 122.917 464.702 126.042C461.693 129.167 457.873 130.729 453.244 130.729ZM503.656 250V169.792H484.212V145.833H504.177V111.111H533.344V145.833H554.003V169.792H533.864V250H503.656Z" fill="#924E8F"/>
<path d="M6.77969 111.103C6.45558 110.743 6.78144 110.179 7.25521 110.279L13.5673 111.621C13.7792 111.666 13.996 111.569 14.1043 111.382L17.3309 105.793C17.573 105.374 18.2105 105.509 18.2611 105.991L18.9357 112.409C18.9583 112.624 19.1171 112.801 19.329 112.846L25.6411 114.187C26.1149 114.288 26.183 114.936 25.7405 115.133L19.8453 117.758C19.6474 117.846 19.5287 118.051 19.5514 118.267L20.2259 124.685C20.2765 125.166 19.6812 125.431 19.3571 125.071L15.0391 120.276C14.8942 120.115 14.662 120.066 14.4642 120.154L8.56893 122.778C8.12644 122.975 7.69037 122.491 7.93255 122.072L11.1591 116.483C11.2674 116.295 11.2426 116.059 11.0977 115.898L6.77969 111.103Z" fill="#F5FDA1"/>
<path d="M21.7016 128.784C21.2208 128.726 21.0954 128.086 21.5187 127.851L23.9893 126.476C24.1785 126.371 24.2785 126.156 24.2368 125.943L23.6931 123.169C23.6 122.694 24.1695 122.377 24.5242 122.707L26.5948 124.632C26.7535 124.779 26.9891 124.808 27.1783 124.702L29.6489 123.328C30.0722 123.092 30.5495 123.536 30.3455 123.975L29.1546 126.54C29.0634 126.736 29.109 126.969 29.2676 127.116L31.3382 129.041C31.693 129.371 31.4185 129.962 30.9376 129.904L28.131 129.564C27.916 129.538 27.7086 129.653 27.6174 129.849L26.4265 132.413C26.2225 132.853 25.5755 132.774 25.4824 132.299L24.9387 129.525C24.897 129.312 24.7232 129.15 24.5082 129.124L21.7016 128.784Z" fill="#F5FDA1"/>
<path d="M22.6512 174.714C22.1704 174.656 22.0451 174.016 22.4683 173.781L24.3056 172.759C24.4949 172.653 24.5949 172.438 24.5532 172.226L24.1489 170.162C24.0557 169.687 24.6252 169.37 24.98 169.7L26.5198 171.132C26.6785 171.279 26.9141 171.308 27.1034 171.202L28.9407 170.18C29.3639 169.945 29.8412 170.388 29.6372 170.828L28.7516 172.735C28.6604 172.931 28.706 173.164 28.8646 173.311L30.4045 174.743C30.7592 175.073 30.4847 175.664 30.0039 175.605L27.9167 175.352C27.7016 175.326 27.4943 175.442 27.403 175.638L26.5174 177.545C26.3134 177.984 25.6664 177.906 25.5733 177.431L25.1689 175.367C25.1273 175.155 24.9535 174.993 24.7384 174.967L22.6512 174.714Z" fill="#F5FDA1"/>
<path d="M87.7433 161.529C88.1661 162.306 87.9865 163.433 86.7876 164.958C85.6055 166.462 83.5664 168.167 80.7812 169.944C78.0028 171.716 74.5777 173.499 70.7462 175.165C66.9155 176.83 62.7782 178.335 58.6279 179.572C54.4772 180.809 50.4194 181.747 46.7423 182.32C43.0617 182.894 39.8682 183.086 37.3815 182.894C34.8631 182.699 33.248 182.122 32.4874 181.33C32.1256 180.953 31.9576 180.529 31.9611 180.047C31.9647 179.549 32.1522 178.95 32.5802 178.251" stroke="#F5FDA1" stroke-linecap="round"/>
<path d="M88.5069 151.934C88.4278 152.815 87.6528 153.653 85.8087 154.256C83.9906 154.851 81.3484 155.138 78.0455 155.07C74.7508 155.002 70.912 154.584 66.8003 153.843C62.6894 153.102 58.4128 152.058 54.2738 150.783C50.1345 149.509 46.2386 148.037 42.8615 146.473C39.4814 144.907 36.7182 143.295 34.7565 141.754C32.7698 140.195 31.7465 138.818 31.5533 137.737C31.4614 137.223 31.5568 136.778 31.8275 136.378C32.1067 135.966 32.5951 135.572 33.3395 135.228" stroke="#F5FDA1" stroke-linecap="round"/>
<path d="M487.396 189.389C486.558 188.324 486.416 186.447 487.27 183.667C488.115 180.917 489.872 177.505 492.452 173.652C495.029 169.804 498.352 165.626 502.206 161.393C506.06 157.16 510.354 152.972 514.806 149.105C519.258 145.237 523.764 141.779 528.03 138.956C532.297 136.133 536.216 134.017 539.531 132.737C542.865 131.45 545.444 131.066 547.15 131.502C547.989 131.717 548.586 132.121 548.976 132.677C549.368 133.234 549.588 133.992 549.591 134.984" stroke="#F5FDA1" stroke-linecap="round"/>
<path d="M556.83 106.503C556.61 106.071 557.071 105.61 557.503 105.83L563.253 108.76C563.446 108.858 563.68 108.821 563.833 108.668L568.396 104.105C568.739 103.762 569.319 104.058 569.244 104.537L568.234 110.91C568.2 111.124 568.308 111.336 568.501 111.434L574.251 114.364C574.682 114.584 574.58 115.227 574.102 115.303L567.728 116.313C567.514 116.347 567.347 116.514 567.313 116.728L566.303 123.102C566.227 123.58 565.584 123.682 565.364 123.251L562.434 117.501C562.336 117.308 562.124 117.2 561.91 117.234L555.537 118.244C555.058 118.319 554.763 117.739 555.105 117.396L559.668 112.833C559.821 112.68 559.858 112.446 559.76 112.253L556.83 106.503Z" fill="#F5FDA1"/>
<path d="M550.78 128.077C550.299 128.018 550.174 127.379 550.597 127.143L553.067 125.769C553.257 125.664 553.357 125.448 553.315 125.236L552.771 122.461C552.678 121.986 553.248 121.669 553.602 121.999L555.673 123.924C555.832 124.072 556.067 124.1 556.256 123.995L558.727 122.62C559.15 122.385 559.628 122.829 559.424 123.268L558.233 125.832C558.141 126.028 558.187 126.261 558.346 126.409L560.416 128.334C560.771 128.664 560.497 129.255 560.016 129.196L557.209 128.856C556.994 128.83 556.787 128.945 556.696 129.142L555.505 131.706C555.301 132.145 554.654 132.067 554.561 131.591L554.017 128.817C553.975 128.605 553.801 128.443 553.586 128.417L550.78 128.077Z" fill="#F5FDA1"/>
</svg>
