<svg width="314" height="270" viewBox="0 0 314 270" fill="none" xmlns="http://www.w3.org/2000/svg">
<path d="M310.304 265.729V250.442H3.5V265.729H310.304Z" fill="#AEB1E7" stroke="#090B3B" stroke-width="7"/>
<circle cx="158.685" cy="106.087" r="28.5935" fill="#AEB1E7" stroke="#090B3B" stroke-width="7"/>
<path d="M115.854 104.958C117.863 104.177 120.508 104.298 122.944 104.611C125.581 104.95 128.749 105.636 132.243 106.551C139.245 108.385 147.896 111.236 156.878 114.453C174.86 120.894 194.457 128.907 205.428 133.491C212.095 136.277 214.848 144.104 211.602 150.472C208.925 155.72 202.928 158.365 197.248 156.802L148.558 143.399C140.649 141.223 132.343 145.186 129.059 152.702L111.448 193.006L160.451 157.905C171.464 150.016 186.849 153.048 194.046 164.525L231.486 224.236C238.633 235.634 230.44 250.442 216.986 250.441C211.659 250.441 206.636 247.961 203.397 243.73L168.56 198.221L107.751 245.495C103.627 248.701 98.5512 250.442 93.3271 250.442H68.7627C59.6733 250.442 50.2949 244.869 49.3975 234.595C47.7721 215.985 52.7764 188.243 63.7842 162.99C74.7665 137.796 92.1175 114.192 115.854 104.958Z" fill="#AEB1E7" stroke="#0A0C3C" stroke-width="7"/>
<path d="M223.318 0C232.829 0.000206146 240.838 6.42568 243.244 15.1719C243.489 15.1615 243.736 15.1553 243.983 15.1553C253.495 15.1553 261.206 22.8665 261.206 32.3779C261.206 41.8889 253.495 49.5983 243.984 49.5986V49.5996H202.651L202.207 49.5938C192.901 49.358 185.43 41.7405 185.43 32.3779C185.43 22.8666 193.14 15.1553 202.651 15.1553C202.899 15.1553 203.146 15.1615 203.391 15.1719C205.797 6.4254 213.807 0 223.318 0Z" fill="#AEB1E7"/>
<path d="M192.417 66.429C191.87 68.4708 189.885 69.7128 187.982 69.203C186.08 68.6933 184.981 66.6249 185.528 64.5831C186.076 62.5414 189.589 60.4097 190.751 58.8697C190.941 61.4376 192.964 64.3872 192.417 66.429Z" fill="#AEB1E7"/>
<path d="M204.006 88.7161C203.459 90.7579 201.473 91.9999 199.571 91.4902C197.669 90.9804 196.57 88.912 197.117 86.8702C197.664 84.8285 201.178 82.6969 202.34 81.1568C202.529 83.7247 204.553 86.6743 204.006 88.7161Z" fill="#AEB1E7"/>
<path d="M221.836 70.8863C221.289 72.9281 219.304 74.17 217.401 73.6603C215.499 73.1506 214.4 71.0822 214.947 69.0404C215.494 66.9986 219.008 64.867 220.17 63.327C220.36 65.8949 222.383 68.8445 221.836 70.8863Z" fill="#AEB1E7"/>
<path d="M209.356 112.786C208.809 114.828 206.823 116.07 204.921 115.56C203.018 115.05 201.92 112.982 202.467 110.94C203.014 108.899 206.528 106.767 207.69 105.227C207.879 107.795 209.903 110.744 209.356 112.786Z" fill="#AEB1E7"/>
<path d="M231.643 93.1736C231.096 95.2154 229.11 96.4574 227.208 95.9477C225.306 95.4379 224.207 93.3695 224.754 91.3278C225.301 89.286 228.815 87.1544 229.977 85.6143C230.166 88.1822 232.19 91.1319 231.643 93.1736Z" fill="#AEB1E7"/>
<path d="M249.472 70.8863C248.925 72.9281 246.939 74.17 245.037 73.6603C243.135 73.1506 242.036 71.0822 242.583 69.0404C243.13 66.9986 246.644 64.867 247.806 63.327C247.995 65.8949 250.019 68.8445 249.472 70.8863Z" fill="#AEB1E7"/>
</svg>
